<?xml version="1.0" encoding="utf-8"?>
<!-- Generator: Adobe Illustrator 16.0.0, SVG Export Plug-In . SVG Version: 6.00 Build 0)  -->
<!DOCTYPE svg PUBLIC "-//W3C//DTD SVG 1.1//EN" "http://www.w3.org/Graphics/SVG/1.1/DTD/svg11.dtd">
<svg version="1.1" id="Layer_1" xmlns="http://www.w3.org/2000/svg" xmlns:xlink="http://www.w3.org/1999/xlink" x="0px" y="0px"
	 width="734.548px" height="209.234px" viewBox="151.952 393.5 734.548 209.234"
	 enable-background="new 151.952 393.5 734.548 209.234" xml:space="preserve">
<path fill="#3D1D33" d="M390.156,487.578v-60.547h8.906c1.875,0,3.203,0.781,3.594,2.656l1.094,4.688
	c1.328-1.328,2.656-2.266,3.984-3.359s2.812-1.875,4.531-2.656c1.484-0.781,3.203-1.328,4.922-1.875
	c1.875-0.547,3.594-0.547,5.859-0.547c3.359,0,6.25,0.547,8.906,1.484c2.656,1.094,4.688,2.656,6.641,4.688
	c1.875,2.109,3.203,4.531,3.984,7.344s1.328,6.016,1.328,9.453v38.672h-14.688v-38.672c0-3.594-0.781-6.641-2.656-8.672
	c-1.875-2.109-4.141-3.203-7.891-3.203c-2.656,0-4.922,0.547-6.953,1.875c-2.109,1.094-4.141,2.656-6.25,4.688v43.984H390.156
	L390.156,487.578z"/>
<path fill="#3D1D33" d="M503.984,487.578h-6.641c-1.328,0-2.266-0.156-3.203-0.547c-0.781-0.547-1.328-1.328-1.875-2.656
	l-1.328-4.531c-1.484,1.328-3.203,2.656-4.531,3.594c-1.484,1.094-3.203,1.875-4.688,2.656s-3.203,1.328-4.922,1.484
	c-1.875,0.156-3.594,0.547-6.016,0.547c-2.656,0-4.922-0.156-6.953-1.094c-2.109-0.781-3.984-1.875-5.469-3.203
	s-2.812-3.203-3.594-5.312s-1.328-4.531-1.328-6.953c0-2.266,0.547-4.531,1.875-6.797s3.203-4.141,6.016-6.016
	s6.641-3.359,11.328-4.531c4.688-1.328,10.391-1.875,17.188-1.875v-3.203c0-4.141-0.781-6.953-2.656-9.219
	c-1.875-2.109-4.141-2.812-7.578-2.812c-2.266,0-4.531,0.156-6.016,0.781c-1.484,0.547-2.812,1.094-4.141,1.875
	c-1.094,0.781-2.266,1.328-3.203,1.875c-1.094,0.547-2.109,0.781-3.203,0.781s-1.875-0.156-2.656-0.781
	c-0.781-0.547-1.328-1.094-1.875-1.875l-2.656-4.688c6.953-6.25,15.469-9.609,25.312-9.609c3.594,0,6.797,0.547,9.453,1.875
	c2.812,1.094,5.312,2.812,6.953,4.922c1.719,2.109,3.359,4.531,4.531,7.344c1.094,2.812,1.484,6.016,1.484,9.453L503.984,487.578
	L503.984,487.578z M475.469,478.672c1.484,0,2.812-0.156,4.141-0.547s2.266-0.781,3.594-1.328c1.094-0.547,2.109-1.328,3.203-2.109
	s2.109-1.875,3.203-2.812v-10.156c-4.141,0-7.891,0.156-10.781,0.781c-2.812,0.547-5.312,1.328-6.797,2.109
	c-1.875,0.781-2.812,1.875-3.594,2.812c-0.781,1.094-1.094,2.266-1.094,3.594c0,2.656,0.781,4.531,2.266,5.469
	C471.094,477.891,473.203,478.672,475.469,478.672z"/>
<path fill="#3D1D33" d="M537.188,488.672c-5.312,0-9.453-1.484-12.109-4.531c-2.812-2.812-4.141-6.953-4.141-12.266v-33.984h-6.641
	c-0.781,0-1.484-0.156-2.109-0.781c-0.547-0.547-0.781-1.328-0.781-2.266v-5.625l9.609-1.484l3.203-16.406
	c0.156-0.781,0.547-1.328,1.094-1.875s1.328-0.547,2.109-0.547H535v19.062h16.016v10.312h-15.625v33.047
	c0,1.875,0.547,3.359,1.328,4.531c1.094,1.094,2.109,1.484,3.984,1.484c0.781,0,1.484,0,2.266-0.156
	c0.547-0.156,1.094-0.547,1.484-0.781c0.547-0.156,0.781-0.547,1.328-0.781c0.156-0.156,0.781-0.156,1.094-0.156
	c0.547,0,0.781,0,1.094,0.156c0.156,0.156,0.547,0.547,0.781,1.094l4.531,6.953c-2.109,1.875-4.688,3.203-7.344,3.984
	C543.047,488.125,540.156,488.672,537.188,488.672z"/>
<path fill="#3D1D33" d="M561.875,487.578v-87.969h14.688v33.75c2.266-2.266,4.922-4.141,7.891-5.469
	c2.812-1.328,6.25-2.109,10-2.109c3.359,0,6.25,0.547,8.906,1.484c2.656,1.094,4.688,2.656,6.641,4.688
	c1.875,2.109,3.203,4.531,3.984,7.344s1.328,6.016,1.328,9.453v38.672h-14.688V448.75c0-3.594-0.781-6.641-2.656-8.672
	c-1.875-2.109-4.141-3.203-7.891-3.203c-2.656,0-4.922,0.547-6.953,1.875c-2.109,1.094-4.141,2.656-6.25,4.688v43.984h-15V487.578z"
	/>
<path fill="#3D1D33" d="M675.625,487.578h-6.641c-1.328,0-2.266-0.156-3.203-0.547c-0.781-0.547-1.328-1.328-1.875-2.656
	l-1.328-4.531c-1.484,1.328-3.203,2.656-4.531,3.594c-1.484,1.094-3.203,1.875-4.688,2.656s-3.203,1.328-4.922,1.484
	c-1.875,0.156-3.594,0.547-6.016,0.547c-2.656,0-4.922-0.156-6.953-1.094c-2.109-0.781-3.984-1.875-5.469-3.203
	s-2.812-3.203-3.594-5.312s-1.328-4.531-1.328-6.953c0-2.266,0.547-4.531,1.875-6.797s3.203-4.141,6.016-6.016
	s6.641-3.359,11.328-4.531c4.688-1.328,10.391-1.875,17.188-1.875v-3.203c0-4.141-0.781-6.953-2.656-9.219
	c-1.875-2.109-4.141-2.812-7.578-2.812c-2.266,0-4.531,0.156-6.016,0.781c-1.484,0.547-2.812,1.094-4.141,1.875
	c-1.094,0.781-2.266,1.328-3.203,1.875c-1.094,0.547-2.109,0.781-3.203,0.781s-1.875-0.156-2.656-0.781
	c-0.781-0.547-1.328-1.094-1.875-1.875l-2.656-4.688c6.953-6.25,15.469-9.609,25.312-9.609c3.594,0,6.797,0.547,9.453,1.875
	c2.812,1.094,5.312,2.812,6.953,4.922c1.875,2.109,3.359,4.531,4.531,7.344c1.094,2.812,1.484,6.016,1.484,9.453L675.625,487.578
	L675.625,487.578z M647.188,478.672c1.484,0,2.812-0.156,4.141-0.547c1.328-0.156,2.266-0.781,3.594-1.328
	c1.094-0.547,2.109-1.328,3.203-2.109s2.109-1.875,3.203-2.812v-10.156c-4.141,0-7.891,0.156-10.781,0.781
	c-2.812,0.547-5.312,1.328-6.797,2.109c-1.875,0.781-2.812,1.875-3.594,2.812c-0.781,1.094-1.094,2.266-1.094,3.594
	c0,2.656,0.781,4.531,2.266,5.469C642.656,477.891,644.688,478.672,647.188,478.672z"/>
<path fill="#3D1D33" d="M688.672,487.578v-60.547h8.906c1.875,0,3.203,0.781,3.594,2.656l1.094,4.688
	c1.328-1.328,2.656-2.266,3.984-3.359s2.812-1.875,4.531-2.656c1.484-0.781,3.203-1.328,4.922-1.875
	c1.875-0.547,3.594-0.547,5.625-0.547c3.359,0,6.25,0.547,8.906,1.484c2.656,1.094,4.688,2.656,6.641,4.688
	c1.875,2.109,3.203,4.531,3.984,7.344s1.328,6.016,1.328,9.453v38.672h-14.844v-38.672c0-3.594-0.781-6.641-2.656-8.672
	c-1.875-2.109-4.141-3.203-7.891-3.203c-2.656,0-4.922,0.547-6.953,1.875c-2.109,1.094-4.141,2.656-6.25,4.688v43.984H688.672
	L688.672,487.578z"/>
<path fill="#3D1D33" d="M760.938,397.188c1.328,2.109,2.266,4.531,3.203,6.641c0.547,2.109,1.094,4.531,1.094,6.641
	c0,3.984-1.094,7.891-2.812,11.328c-2.109,3.594-4.922,6.797-8.672,10l-4.531-2.891c-0.547-0.156-0.781-0.547-0.781-0.781
	c-0.156-0.156-0.156-0.781-0.156-1.094c0-0.781,0.156-1.328,0.781-1.875c0.547-0.547,1.094-1.328,1.484-2.109
	c0.547-0.781,1.094-1.484,1.484-2.656c0.547-1.094,0.781-1.875,1.094-3.203c0.156-1.094,0.547-2.266,0.547-3.594
	s-0.156-2.812-0.547-4.141c-0.547-1.484-1.094-3.203-2.109-4.688c-0.156-0.547-0.547-1.094-0.547-1.484
	c0-1.328,0.781-2.109,2.109-2.656L760.938,397.188z"/>
<path fill="#3D1D33" d="M811.875,438.672c-0.547,0.547-0.781,1.094-1.328,1.328c-0.547,0.156-1.094,0.156-1.484,0.156
	c-0.781,0-1.484-0.156-2.266-0.547c-0.781-0.547-1.875-0.781-2.812-1.328c-1.094-0.547-2.266-1.094-3.594-1.328
	c-1.328-0.547-2.812-0.547-4.688-0.547c-2.812,0-5.312,0.547-6.797,1.875s-2.656,2.812-2.656,4.688c0,1.328,0.547,2.266,1.328,3.359
	c0.781,0.781,2.109,1.484,3.359,2.266c1.328,0.781,2.812,1.328,4.688,1.875s3.594,1.094,5.469,1.875
	c1.875,0.547,3.594,1.328,5.469,2.109s3.359,1.875,4.688,3.203s2.656,2.656,3.359,4.531s1.328,3.984,1.328,6.25
	c0,2.812-0.547,5.469-1.484,8.125c-1.094,2.266-2.656,4.688-4.688,6.25c-2.109,1.875-4.688,3.203-7.578,4.141
	c-3.203,1.094-6.641,1.484-10.391,1.484c-2.109,0-4.141-0.156-6.016-0.547c-2.109-0.156-3.984-0.781-5.625-1.484
	c-1.875-0.781-3.594-1.484-4.922-2.266c-1.484-0.781-2.812-1.875-4.141-2.812l3.359-5.469c0.547-0.781,1.094-1.328,1.484-1.484
	c0.547-0.156,1.328-0.547,2.266-0.547c0.781,0,1.875,0.156,2.656,0.781c0.781,0.547,1.875,1.094,2.812,1.484
	c1.094,0.547,2.266,1.094,3.594,1.484c1.484,0.547,3.203,0.781,5.469,0.781c1.875,0,3.203-0.156,4.531-0.547
	c1.328-0.547,2.266-1.094,3.203-1.484c0.781-0.781,1.328-1.484,1.875-2.266c0.156-0.781,0.547-1.875,0.547-2.812
	c0-1.328-0.547-2.656-1.328-3.359c-0.781-0.781-2.109-1.484-3.359-2.266c-1.328-0.781-2.812-1.328-4.688-1.875
	s-3.594-1.094-5.469-1.875c-1.875-0.547-3.594-1.328-5.469-2.109s-3.359-1.875-4.688-3.203s-2.656-2.812-3.359-4.688
	c-0.781-1.875-1.328-4.141-1.328-6.797s0.547-4.922,1.484-6.953c1.094-2.266,2.266-4.141,4.531-6.016
	c1.875-1.484,4.141-3.203,6.953-3.984c2.812-1.094,6.25-1.484,10-1.484c4.141,0,8.125,0.781,11.484,2.109s6.25,3.203,8.672,5.469
	L811.875,438.672z"/>
<g>
	<path fill="#EC5343" d="M416.953,519.219c4.141,0,7.891,0.547,11.328,1.875s6.25,3.203,8.672,5.469
		c2.266,2.266,4.531,5.312,5.625,8.906c1.328,3.359,2.109,7.344,2.109,11.719c0,1.328,0,2.656-0.156,3.359
		c0,0.781-0.156,1.484-0.781,2.109c-0.156,0.547-0.781,0.781-1.328,1.094s-1.328,0.156-2.109,0.156H405
		c0.547,5.312,2.109,8.906,4.688,11.328c2.656,2.422,5.859,3.359,9.609,3.359c2.109,0,3.984-0.156,5.469-0.781
		c1.484-0.547,2.812-1.094,4.141-1.875c1.328-0.547,2.266-1.328,3.359-1.875s2.109-0.781,3.203-0.781
		c1.484,0,2.656,0.547,3.359,1.484l5.312,6.641c-1.875,2.109-3.984,3.984-6.016,5.312c-2.109,1.328-4.531,2.266-6.797,3.203
		c-2.266,0.781-4.688,1.328-6.797,1.484c-2.266,0.156-4.531,0.547-6.641,0.547c-4.141,0-8.281-0.781-12.109-2.109
		c-3.594-1.328-6.953-3.359-10-6.25c-2.812-2.812-4.922-6.25-6.797-10.156c-1.484-4.141-2.266-8.906-2.266-14.375
		c0-4.141,0.781-8.125,2.109-11.719s3.359-6.797,6.016-9.609s5.859-4.922,9.453-6.641C408.125,520,412.266,519.219,416.953,519.219z
		 M417.188,531.719c-3.359,0-6.25,1.094-8.125,2.812c-2.109,2.109-3.359,4.922-3.984,8.672h23.047c0-1.484-0.156-2.812-0.547-4.141
		c-0.156-1.328-1.094-2.656-1.875-3.594c-0.781-1.094-2.109-2.109-3.359-2.656C420.938,532.109,419.219,531.719,417.188,531.719z"/>
	<path fill="#EC5343" d="M465.078,549.844l-19.766-29.688h17.578c1.328,0,2.266,0.156,2.812,0.547
		c0.547,0.156,1.094,0.781,1.484,1.484l10.938,18.281c0.156-0.781,0.547-1.328,0.781-2.109c0.156-0.781,0.781-1.328,1.328-2.109
		l7.891-13.594c0.547-0.781,1.094-1.484,1.875-1.875c0.547-0.156,1.328-0.547,2.266-0.547h16.797l-19.844,28.672L510,581.562
		h-17.578c-1.328,0-2.266-0.156-3.203-1.094c-0.781-0.547-1.484-1.328-1.875-2.266l-10.938-18.906
		c-0.156,0.781-0.547,1.328-0.781,1.875c-0.156,0.547-0.547,1.094-0.781,1.484l-8.906,15.078c-0.547,0.781-1.094,1.484-1.875,2.109
		s-1.875,1.094-2.812,1.094H445L465.078,549.844z"/>
	<path fill="#EC5343" d="M557.734,534.688c-0.547,0.781-1.094,1.328-1.484,1.484c-0.547,0.547-1.328,0.547-2.109,0.547
		s-1.875-0.156-2.266-0.547c-0.781-0.547-1.484-0.781-2.266-1.484c-0.781-0.547-2.109-1.094-3.203-1.484
		c-1.328-0.547-2.656-0.547-4.531-0.547c-2.266,0-4.141,0.547-5.625,1.328s-2.812,2.109-3.984,3.594
		c-1.094,1.484-1.875,3.359-2.266,5.625c-0.547,2.266-0.781,4.688-0.781,7.578c0,5.859,1.094,10.391,3.359,13.594
		s5.469,4.688,9.453,4.688c2.109,0,3.984-0.156,4.922-0.781c1.328-0.547,2.266-1.094,3.203-1.875
		c0.781-0.547,1.484-1.328,2.266-1.875s1.484-0.781,2.812-0.781c1.484,0,2.656,0.547,3.359,1.484l5.312,6.641
		c-1.875,2.109-3.984,3.984-6.016,5.312s-4.141,2.266-6.641,3.203c-2.109,0.781-4.531,1.328-6.641,1.484s-4.531,0.547-6.641,0.547
		c-3.594,0-7.344-0.781-10.781-2.109c-3.359-1.328-6.641-3.359-8.906-6.25c-2.656-2.656-4.688-6.016-6.25-10
		c-1.484-3.984-2.266-8.281-2.266-13.594c0-4.531,0.781-8.672,2.109-12.266c1.328-3.984,3.359-6.953,5.625-10
		c2.656-2.812,5.625-4.922,9.609-6.641c3.984-1.484,8.125-2.266,13.359-2.266c4.688,0,9.219,0.781,12.656,2.266
		c3.594,1.484,6.797,3.594,10,6.797L557.734,534.688z"/>
	<path fill="#EC5343" d="M569.609,581.484v-88.672h18.281v32.656c2.109-1.875,4.688-3.359,7.344-4.688
		c2.656-1.094,5.625-1.875,9.219-1.875c3.359,0,6.25,0.547,8.906,1.875c2.656,1.094,4.688,2.812,6.641,4.922
		c1.875,2.109,3.203,4.531,3.984,7.344s1.328,6.016,1.328,9.453v39.062h-18.281V542.5c0-2.812-0.781-5.312-2.109-6.953
		c-1.328-1.484-3.359-2.656-6.016-2.656c-2.109,0-3.984,0.547-5.625,1.328c-1.875,0.781-3.359,2.109-4.922,3.359v43.594h-18.281
		L569.609,581.484L569.609,581.484z"/>
	<path fill="#EC5343" d="M679.453,581.484c-1.875,0-3.203-0.156-3.984-0.781c-0.781-0.547-1.484-1.484-2.109-2.812l-1.328-3.359
		c-1.484,1.328-3.203,2.266-4.531,3.359s-2.812,1.875-4.531,2.656c-1.484,0.781-3.203,1.328-4.922,1.484
		c-1.875,0.156-3.594,0.547-5.625,0.547c-2.812,0-5.312-0.156-7.578-1.094c-2.266-0.781-4.141-1.875-5.859-3.203
		c-1.484-1.328-2.812-3.203-3.594-5.312s-1.328-4.531-1.328-7.344c0-2.109,0.547-4.531,1.484-6.797
		c1.094-2.266,3.203-4.531,5.625-6.25c2.656-1.875,6.25-3.359,10.938-4.688s10.391-1.875,17.578-1.875v-2.656
		c0-3.594-0.781-6.25-2.109-7.891c-1.484-1.484-3.594-2.266-6.25-2.266c-2.109,0-3.984,0.156-5.312,0.781
		c-1.328,0.547-2.656,1.094-3.594,1.484c-1.094,0.547-2.109,1.094-3.203,1.484c-1.094,0.547-2.266,0.781-3.594,0.781
		s-2.266-0.156-3.203-1.094c-0.781-0.547-1.484-1.328-2.109-2.266l-3.359-5.859c3.594-3.359,7.891-5.859,12.266-7.344
		c4.531-1.484,9.453-2.266,14.688-2.266c3.594,0,6.953,0.547,10,1.875c2.812,1.328,5.469,2.812,7.578,4.922s3.594,4.688,4.688,7.578
		c1.094,2.812,1.484,6.25,1.484,9.609v38.516h-8.672L679.453,581.484L679.453,581.484z M658.672,570.156
		c2.266,0,4.531-0.547,6.25-1.328s3.594-2.109,5.469-3.984v-8.281c-3.594,0-6.797,0.156-9.219,0.781
		c-2.266,0.547-4.141,1.094-5.859,1.875c-1.328,0.781-2.266,1.484-2.812,2.266s-0.781,1.875-0.781,2.812
		c0,2.109,0.547,3.594,1.875,4.531C654.688,570,656.25,570.156,658.672,570.156z"/>
	<path fill="#EC5343" d="M700,581.484V520h11.328c1.094,0,2.109,0.156,2.812,0.781c0.781,0.547,1.328,1.328,1.484,2.266l1.094,3.594
		c1.328-1.094,2.266-2.109,3.594-3.203s2.656-1.875,4.141-2.266c1.484-0.547,2.812-1.094,4.688-1.484
		c1.484-0.156,3.359-0.547,5.469-0.547c3.359,0,6.25,0.547,8.906,1.875c2.656,1.094,4.688,2.812,6.641,4.922
		c1.875,2.109,3.203,4.531,3.984,7.344s1.328,6.016,1.328,9.453v39.062h-18.281v-38.906c0-2.812-0.781-5.312-2.109-6.953
		c-1.328-1.484-3.359-2.656-6.016-2.656c-2.109,0-3.984,0.547-5.859,1.328s-3.359,2.109-4.922,3.359v43.594H700V581.484z"/>
	<path fill="#EC5343" d="M789.062,519.062c2.656,0,4.922,0.156,7.344,0.781c2.422,0.547,4.531,1.328,6.641,2.109h18.516v6.797
		c0,1.094-0.156,1.875-0.781,2.266c-0.547,0.547-1.484,1.094-2.812,1.328l-4.531,1.094c0.547,1.875,0.781,3.594,0.781,5.469
		c0,3.203-0.547,5.859-1.875,8.281c-1.328,2.266-3.203,4.531-5.312,6.25c-2.266,1.875-4.922,3.203-7.891,3.984
		c-3.203,1.094-6.25,1.328-9.609,1.328c-1.875,0-3.594,0-5.469-0.156c-1.328,0.781-2.109,1.875-2.109,2.812s0.547,1.875,1.484,2.266
		c1.094,0.547,2.656,0.781,4.141,1.094c1.875,0.156,3.984,0.156,6.016,0.156c2.266,0,4.688,0,6.953,0.156s4.688,0.547,6.953,1.094
		s4.531,1.328,6.016,2.656c1.875,1.094,3.203,2.656,4.141,4.688c1.094,1.875,1.484,4.531,1.484,7.344s-0.781,5.469-2.109,8.125
		s-3.359,4.922-6.016,6.953c-2.656,2.109-5.859,3.594-9.609,4.922c-3.594,1.328-8.125,1.875-13.047,1.875
		c-4.688,0-8.906-0.547-12.656-1.328c-3.359-0.781-6.25-2.109-8.672-3.594c-2.266-1.484-3.984-3.203-5.312-5.312
		c-1.094-1.875-1.484-3.984-1.484-6.016c0-2.656,0.781-4.922,2.656-6.797c1.484-1.875,3.984-3.359,6.797-4.531
		c-1.328-0.781-2.656-2.109-3.359-3.359c-0.781-1.328-1.328-3.203-1.328-5.469c0-0.781,0.156-1.875,0.547-2.812
		c0.156-1.094,0.781-2.109,1.484-2.812c0.781-1.094,1.484-1.875,2.656-2.656c1.094-0.781,2.266-1.484,3.594-2.266
		c-3.203-1.484-5.625-3.984-7.578-6.797s-2.812-6.016-2.812-9.609c0-3.203,0.547-5.625,1.875-8.281
		c1.328-2.266,3.203-4.531,5.312-6.25c2.266-1.875,4.922-3.203,8.125-3.984C782.109,519.453,785.469,519.062,789.062,519.062z
		 M802.656,583.594c0-1.094-0.156-1.875-1.094-2.266c-0.547-0.547-1.484-1.094-2.656-1.484c-1.094-0.156-2.266-0.547-3.594-0.781
		c-1.328-0.156-2.812-0.156-4.531-0.156c-1.484,0-3.359,0-4.922,0c-1.875,0-3.359-0.156-5.312-0.547
		c-1.094,0.781-2.109,1.484-2.812,2.656c-0.781,1.094-1.094,2.109-1.094,3.359c0,0.781,0.156,1.484,0.547,2.266
		c0.156,0.781,1.094,1.328,2.109,1.875c1.094,0.547,2.266,1.094,3.984,1.328c1.484,0.156,3.594,0.547,6.016,0.547
		c2.656,0,4.688-0.156,6.641-0.547c1.484-0.156,3.203-0.781,3.984-1.328c1.094-0.547,1.875-1.328,2.109-2.109
		C802.422,585.469,802.656,584.531,802.656,583.594z M789.062,547.578c3.203,0,5.312-0.781,6.641-2.266s2.109-3.359,2.109-6.016
		s-0.781-4.531-2.109-5.859s-3.594-2.109-6.641-2.109c-3.203,0-5.312,0.781-6.641,2.109s-2.109,3.359-2.109,5.859
		c0,1.328,0.156,2.266,0.547,3.203c0.156,1.094,0.781,1.875,1.484,2.656c0.781,0.781,1.484,1.328,2.656,1.875
		C786.25,547.188,787.578,547.578,789.062,547.578z"/>
	<path fill="#EC5343" d="M854.531,519.219c4.141,0,7.891,0.547,11.328,1.875c3.359,1.328,6.25,3.203,8.672,5.469
		c2.266,2.266,4.531,5.312,5.625,8.906c1.328,3.359,2.109,7.344,2.109,11.719c0,1.328,0,2.656-0.156,3.359
		c0,0.781-0.156,1.484-0.547,2.109c-0.156,0.547-0.781,0.781-1.328,1.094c-0.547,0.156-1.328,0.156-2.109,0.156h-35.312
		c0.547,5.312,2.109,8.906,4.688,11.328c2.656,2.266,5.625,3.359,9.609,3.359c2.109,0,3.984-0.156,5.469-0.781
		c1.484-0.547,2.812-1.094,4.141-1.875c1.328-0.547,2.266-1.328,3.359-1.875s2.109-0.781,3.203-0.781
		c1.484,0,2.656,0.547,3.359,1.484l5.312,6.641c-1.875,2.109-3.984,3.984-6.016,5.312c-2.109,1.328-4.531,2.266-6.797,3.203
		c-2.266,0.781-4.688,1.328-6.797,1.484c-2.266,0.156-4.531,0.547-6.641,0.547c-4.141,0-8.281-0.781-12.109-2.109
		c-3.594-1.328-6.953-3.359-10-6.25c-3.047-2.812-4.922-6.25-6.797-10.156c-1.484-4.141-2.266-8.906-2.266-14.375
		c0-4.141,0.781-8.125,2.109-11.719s3.359-6.797,6.016-9.609s5.625-4.922,9.453-6.641C845.625,520,849.844,519.219,854.531,519.219z
		 M854.688,531.719c-3.359,0-6.25,1.094-8.125,2.812c-2.109,2.109-3.359,4.922-3.984,8.672h23.047c0-1.484-0.156-2.812-0.547-4.141
		c-0.156-1.328-1.094-2.656-1.875-3.594c-0.781-1.094-2.109-2.109-3.359-2.656C858.516,532.109,856.797,531.719,854.688,531.719z"/>
</g>
<g>
	
		<linearGradient id="SVGID_1_" gradientUnits="userSpaceOnUse" x1="-390.3125" y1="-79.5693" x2="-395.9831" y2="-51.822" gradientTransform="matrix(4.1559 0 0 4.1559 1938.5588 750.6523)">
		<stop  offset="0" style="stop-color:#5D1724"/>
		<stop  offset="0.0746" style="stop-color:#792734"/>
		<stop  offset="0.1804" style="stop-color:#A13B47"/>
		<stop  offset="0.2322" style="stop-color:#B1424E"/>
		<stop  offset="0.33" style="stop-color:#BC494E"/>
		<stop  offset="0.5028" style="stop-color:#DB5D4E"/>
		<stop  offset="0.561" style="stop-color:#EB674E"/>
		<stop  offset="0.7565" style="stop-color:#E8734B"/>
		<stop  offset="0.9059" style="stop-color:#E77849"/>
	</linearGradient>
	<path fill="url(#SVGID_1_)" d="M307.344,500.547l10.781-10.781c0,0,22.266-25.859,11.484-59.062
		c-2.266-3.984-13.047-18.125-27.891-2.656c-5.859,4.688-8.281,6.953-9.219,8.125c3.984,6.953,8.125,19.609-3.594,31.719
		c-1.875,1.875-4.141,4.141-6.953,6.953L307.344,500.547z"/>
	
		<linearGradient id="SVGID_2_" gradientUnits="userSpaceOnUse" x1="-425.6313" y1="-77.1611" x2="-421.5365" y2="-58.4907" gradientTransform="matrix(4.1559 0 0 4.1559 1938.5588 750.6523)">
		<stop  offset="0" style="stop-color:#673846"/>
		<stop  offset="0.4865" style="stop-color:#F1A978"/>
		<stop  offset="1" style="stop-color:#FDC482"/>
	</linearGradient>
	<path fill="url(#SVGID_2_)" d="M176.797,500.156l25.859-25.859c-2.656-2.656-4.688-4.688-6.25-6.25
		c-11.484-11.484-7.891-23.594-4.141-30.547c-0.781-1.094-3.359-3.359-9.453-8.281c-13.75-14.141-24.141-3.203-27.578,1.875
		c-10.938,33.359,11.484,59.453,11.484,59.453L176.797,500.156z"/>
	
		<linearGradient id="SVGID_3_" gradientUnits="userSpaceOnUse" x1="-408.7139" y1="-56.2749" x2="-404.0903" y2="-37.4381" gradientTransform="matrix(4.1559 0 0 4.1559 1938.5588 750.6523)">
		<stop  offset="0" style="stop-color:#FDC684"/>
		<stop  offset="0.4865" style="stop-color:#F1A978"/>
		<stop  offset="1" style="stop-color:#673846"/>
	</linearGradient>
	<path fill="url(#SVGID_3_)" d="M228.516,500.156c-10.156,10.156-19.609,19.453-25.859,25.859l61.875,61.875l0.547,0.547h1.484
		l20.156-19.844c0,0,2.109-2.266,4.141-6.016c-0.156-0.156-0.547-0.547-0.547-0.547S256.406,527.891,228.516,500.156z"/>
	
		<linearGradient id="SVGID_4_" gradientUnits="userSpaceOnUse" x1="-408.3315" y1="-54.7739" x2="-411.3362" y2="-37.4819" gradientTransform="matrix(4.1559 0 0 4.1559 1938.5588 750.6523)">
		<stop  offset="0" style="stop-color:#EA8750"/>
		<stop  offset="0.205" style="stop-color:#EB774F"/>
		<stop  offset="0.3669" style="stop-color:#EB674E"/>
		<stop  offset="0.5055" style="stop-color:#E6644E"/>
		<stop  offset="0.6607" style="stop-color:#DA5D4D"/>
		<stop  offset="0.685" style="stop-color:#D75C4D"/>
		<stop  offset="0.7298" style="stop-color:#CB564A"/>
		<stop  offset="0.8092" style="stop-color:#AD4642"/>
		<stop  offset="0.9132" style="stop-color:#812E33"/>
		<stop  offset="1" style="stop-color:#5D1724"/>
	</linearGradient>
	<path fill="url(#SVGID_4_)" d="M255.859,500.547c-27.891,27.734-61.484,61.328-61.484,61.328s-0.156,0.156-0.547,0.781
		c1.875,3.203,3.594,5.312,3.594,5.312l20.938,20.547h1.484l0.547-0.547l61.484-61.484C275.312,520,266.016,510.938,255.859,500.547
		z"/>
	<g>
		<path fill="#FAAA67" d="M253.203,443.75l1.875-1.094l-30-30l-0.781-0.781l-0.547-0.547c0,0-32.422-1.094-49.453,1.094
			c-7.344,0.156-12.656,6.016-15.469,10c0,0-2.109,2.812-3.203,6.25c0.156,0.156,11.719-20.938,28.672-3.203
			c8.281,6.953,10,8.906,10,8.906s16.641,16.406,36.016,35.859C240,458.906,253.203,443.75,253.203,443.75z"/>
		<path fill="#FAAA67" d="M318.281,505.859l-47.734-47.734l-26.016,26.016c18.516,18.281,36.797,36.641,44.141,43.984
			c17.578,17.578,0,36.797,0,36.797l-23.203,23.047l-0.156,0.547h29.609h2.812l0.781-0.547c0,0,34.375-26.406,34.375-45.469
			C333.984,519.453,318.281,505.859,318.281,505.859z"/>
	</g>
	<path fill="#F47A53" d="M300.391,425.312c-8.281,6.797-10,8.906-10,8.906s-76.641,76.328-94.141,93.906
		c-17.578,17.578,0,36.797,0,36.797l23.203,23.047l0.156,0.547H190h-2.812l-0.781-0.547c0,0-34.375-26.406-34.375-45.469
		c-1.328-23.047,14.375-36.641,14.375-36.641l93.359-93.359l0.781-0.781l0.547-0.547c0,0,32.422-1.094,49.453,1.094
		c7.344,0.156,12.656,6.016,15.469,10c0,0,2.109,2.812,3.203,6.25C329.062,428.672,317.578,407.578,300.391,425.312z"/>
</g>
</svg>
